<?xml version="1.0" encoding="utf-8"?>
<!-- Generator: Adobe Illustrator 25.2.3, SVG Export Plug-In . SVG Version: 6.00 Build 0)  -->
<svg version="1.1" id="Layer_1" xmlns="http://www.w3.org/2000/svg" xmlns:xlink="http://www.w3.org/1999/xlink" x="0px" y="0px"
	 viewBox="0 0 595.28 841.89" style="enable-background:new 0 0 595.28 841.89;" xml:space="preserve">
<style type="text/css">
	.st0{fill:#FFFFFF;}
</style>
<g>
	<path class="st0" d="M214.76,246.8c7.98,7.99,9.36,16.87,8.88,26.32c-0.08,1.5,0.14,3.02-0.05,4.49c-0.41,3.24,0.91,5.17,3.77,6.77
		c9.15,5.13,18.21,10.43,27.18,15.87c3.34,2.02,4.58,1.78,4.5-2.45c-0.15-8.49,0.17-17-0.01-25.49c-0.07-3.34,1.1-4.28,4.29-4.27
		c22.16,0.1,44.32,0.12,66.48-0.02c3.53-0.02,4.5,1.12,4.48,4.56c-0.11,30.82-0.11,61.65,0.01,92.47c0.01,3.28-1.14,5.1-3.93,6.72
		c-22.61,13.13-45.14,26.41-67.71,39.63c-4.54,2.66-4.58,2.62-4.55-2.82c0.11-20.33,0.15-40.66,0.46-60.98
		c0.06-3.68-1.13-5.73-4.28-7.48c-8.59-4.77-17-9.86-25.5-14.79c-5.12-2.97-5.15-2.95-5.15,2.83c-0.01,14.5-0.05,28.99-0.01,43.49
		c0.02,6.17-0.89,12.03-5.5,16.57c-1.51,1.48-1.2,2.22,0.11,3.54c3.85,3.88,5.32,8.77,5.33,14.12c0.02,31.49,0.01,62.98,0.04,94.47
		c0.01,6.06-1.73,11.61-5.49,16.26c-2.48,3.07-1.41,4.25,1.4,5.95c11.7,7.1,22.66,15.24,32.92,24.31c1.27,1.12,2.3,3.63,4.28,2.63
		c1.45-0.73,0.63-3.06,0.64-4.66c0.22-33.66,0.46-67.31,0.5-100.97c0-3.68,1.27-5.61,4.38-7.4c22.36-12.91,44.6-26.02,66.9-39.03
		c1.35-0.79,2.76-2.63,4.4-1.49c1.45,1.01,0.67,3.1,0.67,4.69c0.04,43.15,0.03,86.31,0.03,129.46c0,5.67-0.01,11.33,0.02,16.99
		c0.01,0.93-0.39,2.14,0.84,2.59c0.89,0.33,1.51-0.46,2.11-1.01c11.19-10.31,23.37-19.3,36.41-27.12c1.98-1.19,1.85-2.36,0.51-3.99
		c-4.91-5.98-6.23-12.97-6.19-20.56c0.16-30.99,0.07-61.98,0.21-92.97c0.02-3.24-0.87-5.23-3.8-6.75c-4.88-2.53-9.51-5.5-14.32-8.17
		c-2.75-1.52-2.42-2.64,0.08-4.04c4.51-2.52,8.85-5.35,13.43-7.7c3.36-1.72,4.68-3.88,4.65-7.81c-0.22-29.16-0.22-58.32-0.19-87.47
		c0.01-12.17-2.14-24.85,8.72-35.29C322.27,246.8,269.23,246.8,214.76,246.8z M160.53,252.79c4.61,8.35,7.86,16.72,7.85,26.2
		c-0.04,29.82-0.03,59.64-0.01,89.46c0,5.54-1.33,10.59-5.22,14.66c-1.44,1.5-1.69,2.43-0.14,4.05c4.16,4.33,5.41,9.71,5.39,15.61
		c-0.08,22.99-0.09,45.98-0.01,68.97c0.02,6.97-1.79,13.39-6.49,18.39c-3.67,3.91-1.3,4.55,1.87,5.69
		c11.13,4.01,21.99,8.66,32.6,13.9c5.67,2.8,5.71,2.77,5.71-3.65c0.01-65.8,0.01-131.6,0.03-197.41c0-1.88-0.41-3.88,0.65-5.91
		c1.05,0.47,1.83,0.73,2.52,1.14c23.57,13.8,47.11,27.64,70.73,41.36c2.62,1.52,3.08,3.49,3.06,6.18
		c-0.08,12.66,0.05,25.32-0.06,37.98c-0.03,3.74,0.87,4.46,4.18,2.39c5.93-3.71,11.75-7.82,18.14-10.5
		c9.39-3.93,13.15-10.21,11.19-20.07c-2.08-10.42,1.6-17.58,11.81-21.14c2.48-0.87,3.49-2.62,3.39-5.38
		c-0.2-5.66-0.19-11.33-0.02-16.99c0.11-3.71-1.08-3.92-3.97-2.18c-8.13,4.9-16.4,9.57-24.51,14.5c-2.44,1.49-4.32,1.52-6.83,0.03
		c-20.78-12.31-41.64-24.47-62.48-36.68C206.78,279.87,183.66,266.33,160.53,252.79z M431.16,252.92c-0.97,0.48-1.97,0.91-2.9,1.46
		c-14.09,8.24-27.84,17.16-42.37,24.51c-9.14,4.62-13.51,10.29-11.51,20.46c0.65,3.33-1.66,8.12,1.12,9.78
		c2.44,1.46,5.67-2.47,8.54-4.03c5.45-2.97,5.41-3.07,5.41,3.04c0,65.81,0,131.63,0,197.44c0,1,0.07,2,0,3
		c-0.23,2.96,0.88,3.53,3.48,2.22c11.91-6,24.17-11.2,36.71-15.74c2.43-0.88,2.75-1.75,0.89-3.76c-5.45-5.94-7.49-13.06-7.43-21.1
		c0.16-22.33,0.09-44.65,0.01-66.98c-0.02-6.05,1.1-11.61,5.4-16.12c1.23-1.29,1.65-2.19,0.16-3.67
		c-4.58-4.55-5.58-10.32-5.56-16.53c0.08-24.49,0.1-48.99,0.01-73.48C423.07,279.46,422,265.34,431.16,252.92z M295.76,600.23
		c3.41-8.39,9.81-14.16,14.88-20.89c1.26-1.67,1.94-3.37,1.94-5.49c-0.04-51.49-0.06-102.98-0.01-154.47c0-3.47-0.93-4.16-3.97-2.35
		c-8.58,5.13-17.17,10.24-25.9,15.1c-2.93,1.63-3.7,3.67-3.69,6.84c0.1,44.66,0.08,89.31,0.1,133.97c0,2-0.03,3.97,1.26,5.73
		C285.51,585.73,292.26,591.62,295.76,600.23z"/>
</g>
</svg>
